<svg width="20" height="19" viewBox="0 0 20 19" fill="none" xmlns="http://www.w3.org/2000/svg">
<path d="M0.714286 3.89286H19.2857C19.6802 3.89286 20 3.57308 20 3.17857V1.39286C20 0.998346 19.6802 0.678569 19.2857 0.678569H0.714286C0.319777 0.678569 0 0.998346 0 1.39286V3.17857C0 3.57308 0.319777 3.89286 0.714286 3.89286ZM0.714286 11.0357H19.2857C19.6802 11.0357 20 10.7159 20 10.3214V8.53571C20 8.1412 19.6802 7.82143 19.2857 7.82143H0.714286C0.319777 7.82143 0 8.1412 0 8.53571V10.3214C0 10.7159 0.319777 11.0357 0.714286 11.0357ZM0.714286 18.1786H19.2857C19.6802 18.1786 20 17.8588 20 17.4643V15.6786C20 15.2841 19.6802 14.9643 19.2857 14.9643H0.714286C0.319777 14.9643 0 15.2841 0 15.6786V17.4643C0 17.8588 0.319777 18.1786 0.714286 18.1786Z" fill="#FFFAFA"/>
</svg>
